# xmcd CD database file
#
# Track frame offsets:
#	150
#	1902
#	22256
#	44955
#	78343
#	102318
#	127373
#	151239
#	181863
#	200000
#	229013
#	255419
#
# Disc length: 3733 seconds
#
# Revision: 1
# Processed by: cddbd v1.5.1PL0 Copyright (c) Steve Scherf et al.
# Submitted via: CDex 1.51
#
DISCID=a00e930c
DTITLE=CHEMISTRY - The Way We Are
DYEAR=1900
DGENRE=
TTITLE0=Intro-Iude~The Way We Are~
TTITLE1=AIKAGI
TTITLE2=PIECES OF A DREAM
TTITLE3=AISISUGITE
TTITLE4=BROTHERHOOD
TTITLE5=Point of No Return
TTITLE6=C'EST LAVIE
TTITLE7=You Go Your Way (Album Version)
TTITLE8=Rewind
TTITLE9=KIMIWOSAGASITETA
TTITLE10=HOSITATINOKYORI
TTITLE11=MotherLand
EXTD=
EXTT0=
EXTT1=
EXTT2=
EXTT3=
EXTT4=
EXTT5=
EXTT6=
EXTT7=
EXTT8=
EXTT9=
EXTT10=
EXTT11=
PLAYORDER=
